<svg width="581" height="657" viewBox="0 0 581 657" fill="none" xmlns="http://www.w3.org/2000/svg">
<path fill-rule="evenodd" clip-rule="evenodd" d="M327.579 10.1358C304.491 -3.37861 275.905 -3.37858 252.817 10.1358L36.6187 136.682C13.9381 149.957 0 174.266 0 200.546V454.904C0 481.184 13.9382 505.493 36.6187 518.768L254.192 646.12C276.247 659.029 303.401 659.645 326.019 647.75L502.367 555.002L502.186 554.659C508.422 551.037 512.623 544.224 512.623 536.416C512.623 524.813 503.346 515.407 491.901 515.407C487.266 515.407 482.986 516.949 479.535 519.556L306.469 610.577C296.688 615.721 284.946 615.455 275.408 609.872L57.8351 482.521C48.0273 476.78 42 466.269 42 454.904V200.546C42 189.182 48.0273 178.67 57.8351 172.929L274.033 46.3831C284.017 40.539 296.379 40.539 306.363 46.383L522.561 172.929C532.369 178.67 538.396 189.182 538.396 200.546V378.281C538.377 378.863 538.377 379.493 538.396 380.172V386.851C537.026 399.866 526.867 416.613 509.5 416.613C497.5 416.613 486.038 414.864 471.984 403.848C457.93 392.833 443.855 376.887 437.967 369.604C434.27 365.031 431.113 361.082 428.269 357.525C420.466 347.765 415.025 340.959 407.283 332.329C405.877 330.762 404.944 329.734 404.345 329.085C404.122 328.687 402.469 326.521 396.719 319.465L432.811 288.955C442.788 280.659 450.564 274.504 456.139 270.489C462.007 266.475 467.289 263.799 471.984 262.46C476.972 261.122 482.841 260.319 489.59 260.052C490.47 257.911 491.204 255.368 491.791 252.424C492.377 249.481 492.671 247.072 492.671 245.199C492.671 241.987 491.204 240.381 488.269 240.381H415.646C411.538 240.381 408.75 241.853 407.283 244.797C406.402 246.67 405.669 249.213 405.082 252.424C404.789 255.368 404.642 257.911 404.642 260.052C409.934 260.052 413.734 257.884 416.044 256.567C417.832 255.547 418.727 255.037 418.727 256.439C418.727 259.115 416.086 262.862 410.804 267.679L350.944 319.465C351.238 303.407 351.384 294.843 351.384 276.912C351.678 258.714 351.971 241.318 352.265 224.725C352.558 208.132 352.852 193.547 353.145 180.968C353.732 168.122 354.172 158.755 354.465 152.868C355.052 146.177 353.292 140.691 350.944 138.014C348.89 135.338 344.929 134 339.06 134C335.539 134 329.964 134.401 322.335 135.204C314.999 135.74 307.37 136.409 299.447 137.212C291.818 138.014 285.803 138.951 281.401 140.022C278.467 144.839 277 149.121 277 152.868C277 156.347 278.467 158.086 281.401 158.086L295.926 158.889C300.621 159.157 303.849 160.629 305.609 163.305C307.663 165.981 308.837 169.594 309.131 174.144C309.424 177.355 309.571 182.842 309.571 190.603C309.864 198.096 310.011 206.928 310.011 217.098C310.011 231.282 309.864 247.072 309.571 264.468C309.571 281.863 309.277 298.991 308.69 315.852C308.397 332.445 308.104 347.164 307.81 360.01C307.517 372.856 307.077 381.822 306.49 386.906C305.903 393.597 303.555 398.816 299.447 402.563C295.633 406.309 289.031 408.45 279.641 408.986C278.467 410.591 277.734 413.134 277.44 416.613C277.147 419.824 277 421.965 277 423.036C277 425.712 278.467 427.05 281.401 427.05H382.131C384.478 427.05 386.092 425.712 386.973 423.036C388.146 419.289 388.733 413.803 388.733 406.577C381.984 406.577 365.763 406.309 361.068 405.774C359.755 405.603 358.642 405.623 357.668 405.641C355.594 405.679 354.147 405.705 352.733 403.848C352.534 403.587 352.36 403.434 352.208 403.302C351.63 402.796 351.384 402.581 351.384 397.745L350.944 360.01L366.789 344.755L407.283 390.921C414.325 398.95 444.969 429.662 451.5 435C485.775 463.015 534.438 450.762 549.719 441.758C563.964 433.366 578.4 418.769 580.291 389H580.396V387.051C580.465 385.495 580.5 383.899 580.5 382.262L580.396 382.247V200.546C580.396 174.266 566.458 149.957 543.777 136.682L327.579 10.1358ZM124.762 401.798C138.397 408.599 153.318 412 169.525 412C180.072 412 191.263 410.232 203.096 406.695C214.93 403.158 225.992 397.581 236.282 389.964C241.427 386.155 244 382.21 244 378.129C244 375.409 242.842 372.28 240.527 368.743C238.469 365.207 236.154 362.078 233.581 359.358C227.15 366.431 218.66 372.416 208.113 377.313C197.566 381.938 186.889 384.25 176.085 384.25C163.479 384.25 152.932 380.442 144.442 372.824C135.953 365.207 129.522 355.413 125.148 343.442C121.032 331.472 118.974 319.094 118.974 306.307C118.974 294.065 120.775 282.366 124.376 271.212C128.235 260.058 133.895 251.08 141.355 244.279C149.073 237.205 158.463 233.669 169.525 233.669C178.271 233.669 186.632 235.709 194.607 239.79C202.582 243.871 208.37 251.896 211.972 263.867C216.345 262.778 220.59 260.874 224.706 258.154C228.822 255.433 232.166 252.44 234.739 249.176C237.569 245.639 238.984 242.51 238.984 239.79C238.984 237.613 236.797 234.213 232.424 229.588C228.307 224.691 221.747 220.202 212.744 216.121C203.997 212.04 192.678 210 178.786 210C158.205 210 140.455 214.625 125.534 223.875C110.871 233.125 99.5514 245.775 91.5765 261.826C83.8588 277.877 80 296.105 80 316.509C80 338.273 83.9874 356.229 91.9624 370.376C100.195 384.523 111.128 394.997 124.762 401.798Z" fill="#0C96FA"/>
</svg>
