<svg width="420" height="465" viewBox="0 0 420 465" fill="none" xmlns="http://www.w3.org/2000/svg">
<path fill-rule="evenodd" clip-rule="evenodd" d="M244 9.30937C222.961 -2.83766 197.039 -2.83766 176 9.30937L34.1443 91.2098C13.105 103.357 0.144287 125.805 0.144287 150.1V313.9C0.144287 338.194 13.105 360.643 34.1443 372.79L177.361 455.476C197.455 467.078 222.078 467.632 242.675 456.948L363.407 394.315L363.3 394.107C367.893 391.543 371 386.634 371 381C371 372.716 364.284 366 356 366C352.565 366 349.4 367.155 346.871 369.097L228.86 430.318C217.35 436.289 203.59 435.979 192.361 429.496L49.1443 346.809C37.387 340.021 30.1443 327.476 30.1443 313.9V150.1C30.1443 136.523 37.387 123.979 49.1443 117.191L191 35.2901C202.757 28.5021 217.243 28.5021 229 35.2901L370.856 117.191C382.613 123.979 389.856 136.523 389.856 150.1V299.562C389.597 303.283 388.596 308.855 384 314.601C376.798 323.605 368.295 321.916 353 314.601C341.823 309.255 326.541 292.104 322.5 287C319.965 283.798 317.8 281.033 315.85 278.542L315.844 278.535L315.844 278.534L315.842 278.533C310.487 271.693 306.753 266.923 301.44 260.875C300.475 259.777 299.835 259.057 299.423 258.601C299.27 258.323 298.136 256.804 294.19 251.859L318.961 230.477C325.809 224.662 331.146 220.348 334.972 217.534C339 214.721 342.625 212.845 345.847 211.907C349.271 210.97 353.299 210.407 357.931 210.219C358.535 208.719 359.039 206.937 359.441 204.874C359.844 202.81 360.046 201.122 360.046 199.809C360.046 197.559 359.039 196.433 357.025 196.433H307.18C304.36 196.433 302.447 197.465 301.44 199.528C300.836 200.841 300.332 202.623 299.929 204.874C299.728 206.937 299.627 208.719 299.627 210.219C303.259 210.219 305.868 208.7 307.453 207.777C308.68 207.062 309.294 206.705 309.294 207.687C309.294 209.563 307.482 212.189 303.857 215.565L262.772 251.859C262.974 240.605 263.074 234.603 263.074 222.036C263.276 209.282 263.477 197.09 263.678 185.46C263.88 173.831 264.081 163.609 264.283 154.793C264.685 145.79 264.988 139.225 265.189 135.099C265.592 130.409 264.383 126.564 262.772 124.689C261.362 122.813 258.644 121.875 254.616 121.875C252.199 121.875 248.372 122.157 243.136 122.719C238.101 123.094 232.865 123.563 227.428 124.126C222.191 124.689 218.063 125.345 215.042 126.095C213.028 129.472 212.021 132.473 212.021 135.099C212.021 137.537 213.028 138.756 215.042 138.756L225.011 139.319C228.233 139.506 230.448 140.538 231.657 142.414C233.067 144.289 233.872 146.822 234.074 150.01C234.275 152.261 234.376 156.106 234.376 161.546C234.577 166.798 234.678 172.987 234.678 180.115C234.678 190.056 234.577 201.122 234.376 213.314C234.376 225.506 234.174 237.51 233.771 249.327C233.57 260.956 233.369 271.273 233.167 280.276C232.966 289.279 232.664 295.562 232.261 299.126C231.858 303.815 230.247 307.473 227.428 310.099C224.809 312.725 220.278 314.225 213.833 314.601C213.028 315.726 212.524 317.508 212.323 319.946C212.122 322.197 212.021 323.698 212.021 324.448C212.021 326.324 213.028 327.261 215.042 327.261H284.177C285.788 327.261 286.896 326.324 287.5 324.448C288.306 321.822 288.708 317.977 288.708 312.912C284.076 312.912 272.943 312.725 269.72 312.35C268.819 312.23 268.056 312.244 267.387 312.256C265.963 312.283 264.97 312.301 264 311C263.864 310.817 263.744 310.71 263.64 310.617C263.243 310.262 263.074 310.112 263.074 306.723L262.772 280.276L273.647 269.584L301.44 301.94C302.589 303.277 304.534 305.588 306.891 308.387L306.896 308.393L306.897 308.394L306.898 308.395C314.459 317.375 326.243 331.37 329.521 334.375C349.521 352.711 380.199 354.601 400.349 340.931C420.023 327.585 419.996 306.364 419.984 296.563C419.984 296.326 419.983 296.095 419.983 295.871L419.856 295.852V150.1C419.856 125.805 406.895 103.357 385.856 91.2098L244 9.30937ZM89.0282 304.768C100.002 310.256 112.012 313 125.056 313C133.546 313 142.553 311.573 152.078 308.719C161.602 305.865 170.506 301.365 178.788 295.218C182.929 292.145 185 288.962 185 285.669C185 283.473 184.068 280.949 182.205 278.095C180.548 275.241 178.685 272.716 176.614 270.521C171.438 276.229 164.605 281.059 156.115 285.01C147.626 288.742 139.033 290.608 130.336 290.608C120.191 290.608 111.701 287.535 104.868 281.388C98.0353 275.241 92.8588 267.338 89.3388 257.679C86.0259 248.019 84.3694 238.031 84.3694 227.713C84.3694 217.834 85.8188 208.395 88.7177 199.394C91.8235 190.393 96.3788 183.149 102.384 177.661C108.595 171.953 116.153 169.099 125.056 169.099C132.096 169.099 138.826 170.745 145.245 174.038C151.664 177.331 156.322 183.807 159.221 193.467C162.741 192.589 166.158 191.052 169.471 188.857C172.784 186.661 175.475 184.246 177.546 181.612C179.824 178.758 180.962 176.234 180.962 174.038C180.962 172.282 179.202 169.538 175.682 165.806C172.369 161.855 167.089 158.232 159.842 154.939C152.802 151.646 143.692 150 132.511 150C115.946 150 101.659 153.732 89.6494 161.196C77.8471 168.66 68.7365 178.868 62.3176 191.82C56.1059 204.772 53 219.481 53 235.945C53 253.508 56.2094 267.997 62.6282 279.412C69.2541 290.828 78.0541 299.279 89.0282 304.768Z" fill="#0C96FA"/>
</svg>
